<svg width="56" height="56" viewBox="0 0 56 56" fill="none" xmlns="http://www.w3.org/2000/svg">
<path d="M55.6035 55.6645H0V0H55.6035V55.6645ZM1.60131 54.0632H54.0021V1.60131H1.60131V54.0632Z" fill="#212020"/>
<path d="M7.81641 31.0117H11.1639V36.8679H16.1661V31.0117H19.5136V45.4997H16.1661V39.7426H11.1639V45.4997H7.81641V31.0117Z" fill="#212020"/>
<path d="M22.4941 40.5966V31.0117H25.8187V40.3831C25.8187 42.0378 26.81 42.9681 28.3198 42.9681C29.8525 42.9681 30.8209 42.0378 30.8209 40.3831V31.0117H34.1684V40.589C34.1684 43.9594 31.8732 45.8657 28.3198 45.8657C24.7664 45.8657 22.4941 43.967 22.4941 40.5966Z" fill="#212020"/>
<path d="M47.971 41.4811C47.971 43.967 46.2172 45.492 43.3425 45.492H37.166V31.0117H43.1137C45.9884 31.0117 47.7651 32.4376 47.7651 34.7785C47.7651 36.662 46.6671 37.7753 44.9972 38.0879C46.6671 38.2557 47.971 39.4757 47.971 41.4811ZM40.5135 33.4365V36.9517H42.3741C43.6551 36.9517 44.4176 36.2883 44.4176 35.1903C44.4176 34.0923 43.6704 33.4289 42.3741 33.4289H40.5135V33.4365ZM44.6006 41.0465C44.6006 39.9713 43.7924 39.2698 42.5952 39.2698H40.5059V42.9528H42.5952C43.8381 42.9528 44.6006 42.2513 44.6006 41.0465Z" fill="#212020"/>
<path d="M9.73035 22.083H7.81641V28.5416H9.73035V22.083Z" fill="#212020"/>
<path d="M11.6973 22.083H14.1374L15.51 26.3074L16.8749 22.083H19.254V28.5492H17.4087V24.4468L16.2267 28.5492H14.8084L13.5426 24.4315V28.5492H11.6973V22.083Z" fill="#212020"/>
<path d="M26.7182 24.4918C26.7182 25.8796 25.704 26.8938 24.3239 26.8938H23.1267V28.5485H21.2051V22.0899H24.3239C25.704 22.0822 26.7182 23.1116 26.7182 24.4918ZM24.7738 24.4918C24.7738 23.9657 24.4077 23.5768 23.9273 23.5768H23.1267V25.4069H23.9197C24.4077 25.4069 24.7738 25.018 24.7738 24.4918Z" fill="#212020"/>
<path d="M31.4321 27.8011H29.3504L29.1445 28.5484H27.1543L29.358 22.0898H31.4321L33.6281 28.5484H31.6379L31.4321 27.8011ZM31.066 26.4057L30.395 23.897L29.724 26.4057H31.066Z" fill="#212020"/>
<path d="M34.3906 25.3162C34.3906 23.3107 35.847 21.8848 37.9669 21.8848C39.9799 21.8848 41.2839 22.8685 41.444 24.5689H39.4157C39.286 23.9818 38.7675 23.5929 37.9745 23.5929C36.9756 23.5929 36.3884 24.2563 36.3884 25.3162C36.3884 26.3761 36.9756 27.0395 37.9745 27.0395C38.7675 27.0395 39.286 26.6506 39.4157 26.0635H41.444C41.2839 27.7639 39.9799 28.7476 37.9669 28.7476C35.847 28.7476 34.3906 27.3216 34.3906 25.3162Z" fill="#212020"/>
<path d="M44.1955 23.7376H42.5332V22.083H47.7793V23.7376H46.1247V28.5492H44.1955V23.7376Z" fill="#212020"/>
</svg>
