<svg viewBox="0 0 417 70" xmlns="http://www.w3.org/2000/svg">
  <path d="M398.24,23.34h1.83c2.78,0,4.28,1.26,4.28,3.8v.26c0,2.54-1.5,3.8-4.28,3.8h-1.83Zm18.45,32.72L410.47,38a12,12,0,0,0,5.67-10.77v-.31c0-8.71-5.17-13.09-15.74-13.09H385.84V56.06h12.4V40.7h1.39l4.22,15.36Zm-52.81-9.23c-3.5,0-5-2.11-5-11.93s1.5-11.83,5-11.83,4.95,2.12,4.95,11.83-1.5,11.93-4.95,11.93m.05,10.55c12.35,0,17.46-6.44,17.46-22.48s-5.11-22.38-17.46-22.38S346.37,19,346.37,34.9s5.11,22.48,17.56,22.48M343.59,13.84H312.41V24.92h8.95V56.06H334.7V24.92h8.89ZM292.83,41.28l1.39-8.07.72-5.6h.23l.88,5.49,1.62,8.18Zm7.78,14.78H313L302.28,13.84H287.55l-9.62,42.22h12.34l1-5.49h8.28Zm-36-12.93c0,2.32-1.27,3.43-3.94,3.43h-2.5V39.38h2.5c2.67,0,3.94,1.11,3.94,3.44Zm-4.33-19.79a2.89,2.89,0,0,1,3.17,3.17v.21a2.86,2.86,0,0,1-3.17,3.16H258.2V23.34Zm9.62,10.34a9.7,9.7,0,0,0,5.39-9v-.32c0-7-4.62-10.55-13.34-10.55H246V56.06h16.78c8.51,0,14.07-4.27,14.07-12.45v-.32c0-4.59-2.45-7.81-6.89-9.61M224,57.07c11,0,16.4-4.75,16.4-14V13.84H227.34V43c0,2.11-1.17,3.22-3.33,3.22s-3.34-1.11-3.34-3.22V13.84H207.61V43.08c0,9.24,5.44,14,16.4,14m-32.36.31a25.11,25.11,0,0,0,12.9-3.32l-4.89-8.76a11.63,11.63,0,0,1-5.9,1.53c-4.22,0-6.22-1.69-6.22-11.77,0-9.72,1.83-12,6.06-12a10.87,10.87,0,0,1,6.06,1.9l4.89-9.23A30.89,30.89,0,0,0,191,12.52c-11.23,0-16.29,7.07-16.29,22.59s5.11,22.27,16.9,22.27m-49.92-1.32H147V28.77L146.73,22H147l2.39,6.28L162,56.06h7V13.84h-5.28v27.6l.33,6.81h-.22l-2.28-6.17L148.73,13.84h-7Zm-35.19,0h5.22V28.77L111.54,22h.22l2.39,6.28,12.62,27.76h7V13.84H128.5v27.6l.33,6.81h-.22l-2.28-6.17L113.54,13.84h-7Zm-13.79,0h5.56V13.84H92.75Z" fill="currentColor"/>
</svg>
