<?xml version="1.0" encoding="utf-8" ?><svg xmlns="http://www.w3.org/2000/svg" xmlns:xlink="http://www.w3.org/1999/xlink" width="1200" height="784" viewBox="0 0 1200 784"><path fill="#04705B" d="M811.06 0L819.591 0C822.962 0.607359 826.848 1.09545 830.273 1.4491C858.145 4.32796 876.83 19.1161 898.555 35.0547L937.598 63.6993L1082.41 169.694L1115.37 193.874C1118.43 196.12 1128.68 203.914 1131.62 205.444L1132.15 205.939C1157.41 226.896 1183.13 234.806 1187.44 273.829C1190.32 299.936 1176.87 316.932 1163.66 338.617C1177.77 355.003 1194.61 370.759 1198.53 392.665C1199.13 396.035 1199.39 399.532 1200 402.761L1200 408.351C1195.59 436.104 1190.25 441.791 1171.18 461.22L1147.51 485.3L1067.1 567.225L967.702 668.534L941.329 695.475C933.333 703.655 925.296 712.344 916.055 719.074C901.883 729.476 885.39 736.27 868.002 738.868C852.435 741.162 824.931 739.504 808 739.058L709.873 736.556L660.216 735.404C652.334 735.254 638.809 735.574 631.358 734.25C619.567 735.811 597.666 741.103 585.198 743.749L496.008 762.696L419.568 778.94C413.476 780.267 407.36 781.485 401.224 782.592C399.343 782.92 393.751 783.609 392.401 784L376.378 784C373.205 783.222 366.868 782.56 363.113 781.817C350.435 779.328 338.293 774.632 327.238 767.944C320.755 764.029 312.558 757.674 306.245 753.043L272.422 728.261L162.17 647.536L74.997 583.734L48.9711 564.68C44.1072 561.116 36.6456 555.912 32.3937 551.921C23.1578 543.247 16.6463 532.072 13.6534 519.76C6.19583 488.969 20.6059 470.729 35.5697 446.093C14.9865 423.338 5.12844 414.479 0 383.553L0 377.649C2.91284 364.968 3.16628 353.781 12.6389 342.223C22.9858 329.599 36.628 316.645 48.1634 304.947L113.799 238.076L219.521 130.341L254.829 94.2611C261.307 87.6543 269.471 78.9498 276.317 72.8851C291.038 59.9031 309 51.1504 328.296 47.5565C342.518 44.8402 352.508 45.8181 366.656 46.1279L411.162 47.2784L521.98 49.9831C535.374 50.4126 548.563 50.346 561.952 51.1346C566.204 51.0618 580.574 47.7262 585.211 46.7397L630.177 37.1637L737.532 14.3669C756.571 10.3203 775.678 6.19349 794.755 2.32104C800.143 1.22721 805.641 0.906863 811.06 0Z"/><path fill="#85BCB0" d="M1163.66 338.617C1177.77 355.003 1194.61 370.759 1198.53 392.665C1199.13 396.035 1199.39 399.532 1200 402.761L1200 408.351C1195.59 436.104 1190.25 441.791 1171.18 461.22L1147.51 485.3L1067.1 567.225L967.702 668.534L941.329 695.475C933.333 703.655 925.296 712.344 916.055 719.074C901.883 729.476 885.39 736.27 868.002 738.868C852.435 741.162 824.931 739.504 808 739.058L709.873 736.556L660.216 735.404C652.334 735.254 638.809 735.574 631.358 734.25C637.392 732.25 651.546 729.658 658.449 728.199L710.916 717.104L850.246 687.514C874.203 682.442 901.916 677.273 925.264 671.479C946.558 666.342 965.818 654.927 980.547 638.713C990.315 628.038 999.549 611.232 1007.21 598.514L1039.81 544.325L1163.66 338.617Z"/><path fill="#85BCB0" d="M0 377.649C2.91284 364.968 3.16628 353.781 12.6389 342.223C22.9858 329.599 36.628 316.645 48.1634 304.947L113.799 238.076L219.521 130.341L254.829 94.2611C261.307 87.6543 269.471 78.9498 276.317 72.8851C291.038 59.9031 309 51.1504 328.296 47.5565C342.518 44.8402 352.508 45.8181 366.656 46.1279L411.162 47.2784L521.98 49.9831C535.374 50.4126 548.563 50.346 561.952 51.1346C556.383 53.8385 522.293 60.0483 514.773 61.6443L385.138 89.1548L318.992 103.184C294.812 108.302 267.156 112.133 245.857 123.988C233.52 131.005 222.676 140.369 213.935 151.551C207.194 160.152 199.93 173.082 194.1 182.774L164.892 231.347L78.7481 374.384L49.6512 422.732C45.357 429.863 40.0672 439.27 35.5697 446.093C14.9865 423.338 5.12844 414.479 0 383.553L0 377.649Z"/><path fill="#FEFEFE" d="M700.013 262.732C707.622 261.639 721.196 263.764 727.969 266.869C738.612 271.75 744.645 278.306 748.836 289.017C751.341 284.759 754.318 280.798 757.712 277.208C767.383 267.083 777.743 262.623 791.686 262.525C847.04 262.137 841.843 310.279 841.823 349.101L841.86 416.318C825.822 418.437 816.364 418.337 800.437 416.3L800.489 355.623C800.494 343.536 801.011 330.899 799.553 318.902C798.086 306.826 793.75 298.869 780.503 299.095C750.136 299.615 753.639 332.281 753.644 353.631L753.634 399.91L753.673 416.303C737.858 418.472 728.078 418.328 712.373 416.3L712.443 356.262C712.451 343.303 714.541 314.385 705.723 303.544C700.037 296.552 680.842 298.404 674.898 305.279C670.602 310.249 667.761 315.717 666.75 322.562C664.83 334.875 665.555 348.256 665.594 360.753L665.598 416.276C649.837 418.501 639.731 418.335 624.078 416.265L624.1 266.034C636.641 263.923 645.634 263.452 658.229 266.18C660.548 272.287 661.765 280.314 662.425 286.795C671.26 272.201 683.085 264.571 700.013 262.732Z"/><path fill="#FEFEFE" d="M351.514 262.758C352.824 262.629 354.139 262.555 355.455 262.536C373.278 262.245 393.846 265.98 406.989 278.896C425.567 297.152 422.195 328.773 422.178 352.723L422.229 410.663C389.588 419.978 333.912 429.114 307.94 400.927C299.814 391.348 297.466 379.59 297.71 367.393C298.382 333.804 330.386 320.905 359.177 320.119C366.847 319.91 374.185 320.326 381.841 320.674C381.562 298.309 370.064 295.223 349.546 295.268C338.02 295.294 327.483 297.685 316.644 301.536C310.438 289.55 309.185 284.418 308.315 271.101C324.077 265.884 335.054 263.995 351.514 262.758Z"/><path fill="#04705B" d="M359.313 346.475C365.709 345.552 375.447 346.49 381.839 347.475C381.504 359.762 381.782 373.221 381.789 385.596C372.388 387.381 369.001 387.591 359.394 387.381C349.191 387.109 338.047 382.235 336.629 371.157C334.548 354.894 345.325 348.571 359.313 346.475Z"/><path fill="#FEFEFE" d="M469.737 264.515C478.761 263.827 488.295 264.711 497.21 266.119L497.197 324.094C497.179 362.341 493.597 395.201 545.93 383.584C545.446 371.359 545.867 356.162 545.866 343.752L545.814 266.102C559.844 263.574 573.055 263.922 587.064 266.121L587.071 310.846L587.104 410.344C556.399 419.945 499.899 428.324 473.56 403.48C452.564 383.676 455.782 346.535 455.781 319.729L455.79 266.03C460.412 265.303 465.077 264.941 469.737 264.515Z"/><path fill="#FEFEFE" d="M944.77 261.77C956.843 261.765 1041.77 260.86 1044.14 262.667C1044.43 268.862 1036.43 281.56 1033.15 287.555L1015.42 319.824C1072.41 336.87 1050.34 440.255 971.666 417.365C966.58 415.592 961.82 412.995 957.576 409.679C944.527 399.292 940.521 385.353 938.72 369.678L973.756 369.63C973.831 370.072 973.91 370.514 973.994 370.955C978.365 393.866 1014.34 388.889 1008.02 361.135C1003.13 339.686 973.939 347.497 969.374 344.675C968.152 338.605 985.992 304.952 989.741 297.229L944.769 297.215L944.77 261.77Z"/><path fill="#FEFEFE" d="M188.699 261.941C228 259.978 277.486 270.084 270.2 321.72C267.988 337.401 257.057 346.67 244.983 355.327L282.848 415.842L275.373 416.429C260.202 417.76 251.237 417.758 236.197 415.829C231.707 408.802 226.869 399.841 222.589 392.44L197.091 348.433C206.587 343.956 216.394 339.643 223.353 331.485C231.652 321.755 231.772 306.976 221.327 298.74C211.986 291.374 199.725 292.407 188.653 293.74L188.699 261.941Z"/><path fill="#FEFEFE" d="M919.671 261.788C920.676 265.102 919.943 296.632 919.939 302.037L920.001 416.952C905.249 418.797 894.818 419.216 880.077 416.998C879.813 416.976 879.167 416.685 878.883 416.573C877.813 411.361 878.678 389.435 878.68 383.236L878.663 297.027C890.348 286.053 907.198 272.448 919.671 261.788Z"/><path fill="#FEFEFE" d="M542.539 444.305C584.758 443.369 586.772 514.369 548.337 521.138C505.723 523.146 503.403 450.229 542.539 444.305Z"/><path fill="#04705B" d="M541.833 450.695C575.832 449.029 578.031 505.74 549.544 514.558C515.653 519.108 511.025 458.689 541.833 450.695Z"/><path fill="#FEFEFE" d="M382.583 444.342C423.474 441.858 428.124 512.117 390.12 520.972C347.786 526.256 342.422 450.819 382.583 444.342Z"/><path fill="#04705B" d="M382.517 450.673C416.014 449.026 418.565 505.725 390.06 514.54C355.501 518.914 351.839 458.101 382.517 450.673Z"/><path fill="#FEFEFE" d="M589.516 445.58C598.204 445.472 607.872 444.614 616.023 447.786C629.67 453.096 631.389 470.824 621.899 480.811C618.292 484.608 615.559 485.682 610.716 487.538C618.298 497.711 626.116 509.436 633.434 519.922L625.457 519.92L622.695 515.95L603.949 488.715L595.891 488.82C595.884 498.485 596.199 508.378 595.789 517.959C595.694 520.178 591.917 520.351 590.005 519.312C589.021 514.695 589.39 499.694 589.395 494.198L589.516 445.58Z"/><path fill="#04705B" d="M595.913 451.83C603.509 451.684 610.861 451.277 617.094 456.392C624.787 462.704 622.055 471.457 616.235 477.881C609.753 482.698 603.547 482.583 595.892 482.671L595.913 451.83Z"/><path fill="#FEFEFE" d="M500.115 445.577L506.788 445.616C505.736 449.439 504.787 453.452 503.815 457.31C502.142 464.228 489.694 518.182 487.794 519.513C485.374 519.77 484.904 519.853 482.46 519.28C480.836 516.427 477.724 502.275 476.693 498.301C472.784 483.239 469.415 467.781 465.24 452.799C462.934 464.902 458.61 479.506 455.762 491.777C454.35 497.861 450.498 514.128 448.576 519.138C447.09 519.804 443.783 520.102 442.387 519.248C440.735 515.341 424.454 449.113 424.468 446.752C424.471 446.349 424.7 445.981 424.816 445.596L430.701 445.619C435.742 466.765 440.647 487.944 445.414 509.154C447.211 503.69 449.477 493.346 450.951 487.457L461.442 445.547L469.449 445.546L479.171 484.505C481.131 492.331 483.79 501.942 485.134 509.709C490.467 489.316 495.291 466.291 500.115 445.577Z"/><path fill="#FEFEFE" d="M724.421 445.572L730.6 445.568C743.269 465.776 755.838 487.37 768.197 507.872C767.196 489.837 767.966 464.261 767.931 445.64C769.81 445.571 772.27 445.647 774.196 445.653L774.184 519.889C772.59 519.928 770.476 520.197 768.951 519.756C766.128 518.94 735.326 465.653 730.564 457.663C730.863 473.834 730.652 501.789 730.38 518.986C730.155 519.251 729.929 519.515 729.703 519.779C727.59 519.919 727.3 520.262 725.527 519.425C723.444 515.826 724.468 499.624 724.467 494.338L724.421 445.572Z"/><path fill="#FEFEFE" d="M678.184 445.569L686.452 445.543C676.842 457.35 667.422 470.307 657.867 482.368L676.372 504.795L688.797 519.948L679.921 519.903C670.288 507.905 659.519 495.016 650.394 482.751C650.399 491.278 650.866 508.566 650.208 517.841C650.096 519.43 646.91 521.171 644.416 519.2C643.637 515.469 643.691 494.321 643.841 489.074C644.225 475.574 643.229 458.757 644.063 445.587L650.453 445.609L650.407 481.773C658.499 470.372 669.521 456.673 678.184 445.569Z"/><path fill="#FEFEFE" d="M818.483 444.327C827.04 443.909 832.426 444.889 840.187 448.282L838.95 454.501C831.691 451.59 824.761 449.608 816.821 450.912C810.281 451.927 804.442 455.572 800.658 461.001C791.447 473.98 791.592 501.119 805.982 510.823C814.788 516.761 824.817 515.278 834.527 513.395L834.517 494.999C834.443 492.731 834.051 490.149 835.073 488.278C836.628 487.734 839.038 487.889 840.317 488.944C841.011 492.575 840.645 512.407 840.672 517.596C837.126 518.978 833.44 519.972 829.68 520.561C808.056 524.068 791.458 513.46 788.521 491.404C785.481 468.581 793.866 447.564 818.483 444.327Z"/><path fill="#FEFEFE" d="M326.997 444.315C331.305 444.018 339.485 444.378 343.439 446.528C345.636 447.723 346.484 451.371 344.672 453.314C317.384 443.925 301.794 460.22 304.332 487.976C306.244 508.884 317.711 516.391 337.902 514.224L344.827 512.043C345.203 513.355 345.768 516.626 346.063 518.094C334.844 522.319 322.063 523.04 311.94 515.699C292.148 501.345 292.551 460.904 314.184 448.318C318.455 445.833 322.166 444.954 326.997 444.315Z"/><path fill="#FEFEFE" d="M700.048 445.579L706.292 445.625L706.31 495.438C706.314 501.699 706.681 514.078 706.037 519.886C703.793 519.939 701.898 520.2 699.857 519.367C699.217 503.057 699.966 485.568 699.663 469.154C699.604 465.917 699.493 447.748 700.048 445.579Z"/><path fill="#FEFEFE" d="M157.121 485.502L233.715 485.475C239.177 485.473 262.379 485.08 266.491 485.759C267.361 486.734 267.24 488.413 267.324 489.818L197.021 489.879C185.432 489.899 169.283 490.423 158.304 489.682C157.28 488.542 157.395 487.255 157.121 485.502Z"/><path fill="#FEFEFE" d="M873.877 485.54C898.56 484.806 923.926 485.966 948.688 485.458C959.608 485.233 971.944 485.068 982.816 485.611C984.092 486.78 983.773 487.723 984.001 489.856L914.648 489.856C902.514 489.874 887.115 490.345 875.184 489.728C873.895 488.515 874.176 487.652 873.877 485.54Z"/></svg>