<?xml version="1.0" encoding="utf-8" ?><svg xmlns="http://www.w3.org/2000/svg" xmlns:xlink="http://www.w3.org/1999/xlink" width="3840" height="2659" viewBox="0 0 3840 2659"><path fill="#046F5B" d="M1820.15 409.302C1842.61 408.623 1915.56 390.479 1940.98 385.066L2253.3 318.918L2366.59 294.856C2410.57 285.493 2458.24 272.338 2504.35 272.706C2598.69 273.458 2653.02 312.722 2712.55 356.334L2801.28 421.361L3099.41 639.621L3336.38 813.032L3406.6 864.352C3470.31 911.002 3495.77 939.226 3505.74 1005.88C3516.19 1075.76 3479.57 1123.57 3441.97 1185.36C3464.01 1211.08 3490.95 1240.13 3509.53 1266.83C3542.33 1313.96 3547.09 1375.06 3528.77 1425.53C3521.9 1444.8 3511.06 1463.28 3496.58 1480.41C3484.02 1495.11 3466.38 1512.04 3452.23 1526.42L3376.09 1603.85L3137.69 1846.77L2914.23 2074.33C2874.71 2114.64 2835.79 2156.04 2794.11 2195.41C2756.44 2230.99 2689.96 2262.45 2625.66 2267.35C2597.57 2269.48 2565.22 2267.82 2536.75 2267.07L2416.56 2264.01L1999.05 2253.62C1990.16 2254.57 1960.2 2261.38 1950.48 2263.46L1853.07 2284.25L1506.06 2357.85C1471.47 2365.25 1392.35 2383.76 1359.33 2386.07C1324.73 2388.35 1289.85 2384.67 1257.81 2375.34C1230.18 2367.39 1204.82 2356.09 1182.93 2341.96C1142.35 2316.3 1086.05 2272.36 1046.13 2243.11L795.593 2059.7L529.733 1865.12C485.753 1832.93 436.416 1798.85 394.866 1765.58C331.791 1715.07 319.523 1620.82 349.002 1559.56C362.325 1531.87 381.624 1502.26 397.849 1475.47C341.44 1410.25 299.586 1371.04 302.921 1290.25C306.403 1205.91 365.467 1162.07 430.396 1096.02L605.272 917.889L906.21 611.335L992.651 523.147C1138.49 374.482 1180.53 393.502 1419.11 399.41L1820.15 409.302Z"/><path fill="#89C0B4" d="M1999.05 2253.62C2014.32 2249.28 2044.87 2243.43 2061.34 2239.95L2173.56 2216.17L2592.98 2127.19L2726.73 2098.83C2754.21 2093 2785.9 2086.79 2812.04 2079.64C2868.01 2064.33 2918.6 2028.37 2949.46 1993.11C2976.45 1962.27 2997.98 1922.57 3018.48 1888.56L3111.03 1734.8L3441.97 1185.36C3464.01 1211.08 3490.95 1240.13 3509.53 1266.83C3542.33 1313.96 3547.09 1375.06 3528.77 1425.53C3521.9 1444.8 3511.06 1463.28 3496.58 1480.41C3484.02 1495.11 3466.38 1512.04 3452.23 1526.42L3376.09 1603.85L3137.69 1846.77L2914.23 2074.33C2874.71 2114.64 2835.79 2156.04 2794.11 2195.41C2756.44 2230.99 2689.96 2262.45 2625.66 2267.35C2597.57 2269.48 2565.22 2267.82 2536.75 2267.07L2416.56 2264.01L1999.05 2253.62Z"/><path fill="#89C0B4" d="M397.849 1475.47C341.44 1410.25 299.586 1371.04 302.921 1290.25C306.403 1205.91 365.467 1162.07 430.396 1096.02L605.272 917.889L906.21 611.335L992.651 523.147C1138.49 374.482 1180.53 393.502 1419.11 399.41L1820.15 409.302L1818.77 411.156L1264.34 528.847L1117.43 559.986C1036.47 577.174 986.612 584.692 928.225 631.608C873.563 675.531 850.843 723.374 819.294 775.801L725.263 932.053L397.849 1475.47Z"/><path fill="#FEFEFE" d="M2190.9 980.65C2265.83 975.747 2301.75 1006.05 2322.84 1050.9C2346.18 1014.96 2375.97 980.545 2439.75 980.485C2596.21 980.34 2573.34 1133.96 2573.28 1207.27L2573.36 1394.79C2530.93 1401.18 2503.99 1400.66 2461.94 1394.83L2462.02 1230.4C2462.02 1195.97 2463.65 1160.89 2458.68 1126.68C2455.62 1106.77 2447.47 1078.61 2410.78 1078.79C2319.35 1079.22 2335.81 1187.45 2335.95 1228.83L2335.88 1365.2L2335.88 1394.69C2294.67 1401.35 2264.8 1400.5 2223.95 1394.78L2224.03 1230.6C2224.04 1198.25 2225.25 1165.49 2221.93 1133.12C2219.91 1113.47 2213.12 1080.5 2176.25 1078.45C2128.55 1075.78 2107.91 1107.75 2102.38 1135.52C2095.53 1169.89 2097.93 1206 2098.04 1240.97L2098.01 1394.75C2054.34 1401.14 2029.33 1400.74 1985.93 1394.78L1985.92 989.683C2015.29 984.025 2049.48 982.532 2078.25 990.467C2084.63 1009.26 2087.18 1026.01 2089.54 1045.1C2110.18 1013 2137.37 986.333 2190.9 980.65Z"/><path fill="#FEFEFE" d="M1254.6 980.8C1257.89 980.526 1260.43 980.301 1263.76 980.29C1459.37 979.655 1440.97 1123.96 1440.96 1216.18L1440.91 1379.92C1345.79 1407.83 1203.15 1425.48 1135.4 1356.27C1088.56 1304.17 1091.97 1200.35 1168.58 1160.68C1219.96 1134.09 1271.56 1133.02 1332.37 1137.61C1332.51 1123.84 1332.59 1108 1324.22 1095.4C1294.83 1051.19 1202.95 1070.39 1156.52 1084.83C1139.25 1052.78 1135.57 1036.57 1134.17 1003.1C1174.12 989.772 1210.48 982.733 1254.6 980.8Z"/><path fill="#046F5B" d="M1289.18 1205.43C1301.44 1204.98 1320.41 1207.53 1332.35 1209.22L1332.35 1312.01C1300.95 1317.86 1292.07 1318.3 1259.73 1315.92C1201.75 1304.49 1195.96 1252.13 1228.57 1222.24C1242.18 1209.77 1267.48 1206.52 1289.18 1205.43Z"/><path fill="#FEFEFE" d="M1561.02 986.144C1592.98 984.213 1612.15 984.866 1643.36 989.923L1643.26 1143.29C1643.26 1184.36 1639.8 1227.14 1651.77 1267.45C1665.63 1314.09 1718.35 1318.35 1775.22 1306.79L1775.22 989.881C1813.29 982.996 1848.08 983.997 1886.05 989.92L1886.05 1095.15L1886.05 1379C1823.94 1399.44 1776.38 1404.69 1709.12 1403.45C1515.76 1399.88 1531.89 1246.6 1531.89 1150.79L1531.94 989.959C1541.97 988.057 1550.8 987.244 1561.02 986.144Z"/><path fill="#FEFEFE" d="M2851.8 977.89L3118.95 977.89C3119.73 1000.35 3103.79 1022.19 3092.29 1043.18L3042.08 1134.54C3046.05 1135.76 3049.97 1137.06 3053.84 1138.44C3177.49 1183.07 3144.14 1420.98 2967.09 1406.12C2944.87 1404.25 2931.05 1400.65 2911.79 1393.1C2852.97 1364.89 2840.7 1314.8 2834.83 1269L2929.84 1269C2932.14 1298.34 2969.35 1329.16 3007.39 1300.87C3033.11 1281.74 3028.86 1229.33 2996.71 1213.89C2970.89 1201.5 2947.72 1201.57 2917.2 1204.1C2917.14 1201.98 2917.17 1199.86 2917.18 1197.73C2917.25 1178.3 2961.68 1096.27 2972.55 1073.72L2851.7 1073.72L2851.8 977.89Z"/><path fill="#FEFEFE" d="M813.874 978.185C821.027 977.989 828.185 977.867 835.344 977.819C889.633 977.516 941.379 985.739 980.834 1013.05C1019.79 1040.01 1033.61 1075.49 1033.47 1112.69C1033.29 1163.68 1014.66 1194.64 963.022 1230.46L1065.09 1393.61C1055.29 1394.2 1044.84 1395.29 1035.03 1396.17C995.615 1399.03 978.466 1398.61 939.275 1393.61C903.459 1336.02 867.699 1270.44 834.042 1211.65C888.198 1186.55 928.764 1160.45 920.256 1111.54C912.375 1066.24 866.143 1058.89 811.413 1063.89C811.48 1052.15 808.908 983.519 813.874 978.185Z"/><path fill="#FEFEFE" d="M2783.37 978.607C2788.15 992.834 2784.35 1068.63 2784.34 1086.62L2784.39 1396.36C2743.31 1402.5 2719.72 1402.13 2678.67 1397.41L2674.39 1396.18C2671.01 1390.38 2673.1 1100.91 2673.12 1072.83C2709.59 1041.27 2746.34 1009.86 2783.37 978.607Z"/><path fill="#FEFEFE" d="M1772.21 1470.1C1823.92 1473.62 1842.1 1507.59 1850.43 1538.52C1861.74 1580.54 1855.25 1669.09 1776.73 1678.18C1722.33 1677.13 1702.64 1638.14 1695.08 1606.75C1684.96 1564.75 1692.26 1476.88 1772.21 1470.1Z"/><path fill="#046F5B" d="M1760.96 1488.18C1854.67 1478.99 1863.79 1634.57 1784.61 1660.29C1756.3 1662.19 1738.6 1654.1 1726.28 1636.11C1699.86 1597.52 1697.63 1510.1 1760.96 1488.18Z"/><path fill="#FEFEFE" d="M1340.46 1470.1C1386.08 1472.12 1405.47 1498.69 1415.91 1525.98C1432.66 1569.76 1429.74 1664.54 1349.47 1678.04C1293.49 1678.17 1273.24 1641.16 1264.97 1608.71C1254.18 1566.44 1260.69 1478.29 1340.46 1470.1Z"/><path fill="#046F5B" d="M1331.43 1488.03C1423.18 1479.37 1433.75 1634.81 1353.68 1660.37C1323.36 1662.12 1306.68 1652.95 1294.12 1633.74C1269.62 1596.26 1267.71 1507.49 1331.43 1488.03Z"/><path fill="#FEFEFE" d="M3234.66 898.739C3330.63 894.856 3339.1 1011.71 3256.09 1031.92C3159.3 1036.26 3150.53 917.321 3234.66 898.739Z"/><path fill="#046F5B" d="M3232.51 906.545C3317.3 899.805 3329.33 1002.13 3256.87 1024.24C3174.58 1031.27 3159.74 929.685 3232.51 906.545Z"/><path fill="#FEFEFE" d="M3225.48 928.752C3240.52 928.491 3251.97 927.1 3263.1 935.387C3278.71 946.996 3267.78 959.827 3253.88 968.36C3259.35 974.905 3273.85 991.245 3275.34 997.638L3269.83 998.799C3263.38 996.478 3263.21 995.732 3259.71 991.437C3256.23 986.817 3246.4 971.971 3239.87 971.226C3235.19 977.054 3237.86 992.596 3233.59 997.702L3229.36 997.952L3226.22 996.076C3223.89 990.81 3225.51 938.542 3225.48 928.752Z"/><path fill="#046F5B" d="M3235.88 937.09C3259.73 937.215 3263.93 944.594 3255.08 958.696C3248.33 961.037 3245.05 962.471 3238.08 960.51C3233.73 955.21 3235.65 943.918 3235.88 937.09Z"/><path fill="#FEFEFE" d="M1892.39 1473.89C1908.21 1473.75 1933.22 1472.81 1947.9 1475.2C1995.1 1483.29 2002.99 1523.86 1991.73 1551.54C1984.65 1568.93 1971.92 1578.49 1950.17 1587.1L2011.13 1674.43C2004.22 1674.55 1996.5 1674.36 1989.52 1674.29L1970.76 1646.86L1932.24 1590.5L1910.15 1590.78C1910.08 1602.88 1912.97 1669.47 1907.2 1673.96C1901.86 1674.28 1897.08 1675.14 1892.77 1673.32C1890.95 1655.73 1892.32 1623.77 1892.32 1605.16L1892.39 1473.89Z"/><path fill="#046F5B" d="M1910.3 1490.91C1953.87 1490.17 1980.88 1498.03 1978.91 1533.71C1978.28 1545.06 1971.75 1553.94 1962.55 1563.05C1942.53 1573.98 1935.15 1573.79 1910.15 1573.76L1910.3 1490.91Z"/><path fill="#FEFEFE" d="M1446.61 1473.89C1453.7 1473.68 1456.14 1473.31 1462.99 1474.86C1470.87 1486.41 1499.23 1624.8 1503.74 1644.46C1519.74 1592.87 1533.77 1526.97 1546.95 1473.99L1568.42 1473.88C1584.8 1527.82 1596.18 1588.43 1611.34 1643.55C1617.71 1623.96 1648.14 1478.95 1653.2 1474.17L1658.78 1473.65C1674.92 1478.14 1663.43 1498.66 1660.59 1508.99C1651.17 1551.1 1639.58 1593.2 1629.87 1635.3C1627.16 1647.06 1624.19 1662.4 1619.21 1673.63L1614.77 1674.87C1610.83 1674.72 1608.52 1674.76 1605.17 1673.13C1599.75 1670.51 1561.63 1508.85 1558.24 1493.66C1551.84 1515.4 1516.91 1668.48 1509.99 1673.99C1502.13 1675.29 1506.02 1675.27 1497.87 1673.7C1496.67 1672.8 1495.46 1671.91 1494.26 1671.01C1491.48 1657.91 1487.23 1640.93 1484.13 1628.21L1446.61 1473.89Z"/><path fill="#FEFEFE" d="M2256.92 1473.89C2261.59 1473.78 2266.55 1473.4 2271.08 1474.34C2277.92 1475.76 2361.71 1622.39 2374.11 1639.48C2374.1 1622.87 2371.21 1480.79 2375.9 1474.66C2376.99 1473.24 2379.34 1473.17 2381.39 1472.68C2385.22 1473.46 2384.72 1472.86 2387.3 1474.7C2389.75 1476.44 2391.21 1479.31 2391.17 1481.79C2390.86 1501.58 2390.9 1521.78 2390.89 1541.55L2390.86 1674.52C2383.89 1674.71 2381.95 1674.99 2375.09 1673.64C2366.15 1663.6 2350.55 1634.93 2343.02 1622.8C2319.48 1584.86 2297.84 1545.68 2273.51 1507.97L2273.23 1626.16C2273.15 1634.24 2276.61 1670.42 2270.2 1674.25C2265.25 1674.48 2262.28 1675.07 2258.32 1673.13C2254.56 1667.44 2256.93 1496.12 2256.92 1473.89Z"/><path fill="#FEFEFE" d="M2039.83 1473.82C2045.83 1473.81 2052.76 1473.26 2056.36 1475.69C2059.25 1497.25 2057.16 1547.4 2057.09 1571L2131.65 1473.9L2153.86 1474.05L2077.43 1573.24L2135.77 1644.28L2160.61 1674.51L2136.72 1674.51L2057.19 1575.25L2057.1 1633.47C2057.26 1645.71 2062.46 1668.58 2047.95 1676.3L2045.11 1675.87C2036.34 1669.33 2039.61 1616.24 2039.61 1604.39L2039.83 1473.82Z"/><path fill="#FEFEFE" d="M2516.85 1470.16C2540.21 1471.11 2549.64 1472.24 2569.17 1481.44C2567.85 1486.8 2566.98 1492.65 2566.01 1498.08C2530.09 1482.82 2488.14 1482.55 2466.17 1510.5C2437.34 1547.18 2431.54 1631.52 2490.36 1656.64C2509.04 1664.62 2534.31 1660.99 2553.89 1656.67L2553.89 1592.74L2554.65 1589.53C2560.59 1587.04 2564.14 1587.17 2569.44 1589.83C2572.48 1609.58 2570.46 1647.4 2570.22 1668.48C2486.81 1698.55 2437.96 1654.51 2430.2 1600.95C2423.5 1554.65 2430.85 1477.06 2516.85 1470.16Z"/><path fill="#FEFEFE" d="M1191.17 1470.15C1209.91 1470.7 1220.04 1473.12 1236.24 1479.08C1234.84 1484.2 1233.89 1489.95 1232.86 1495.15C1231.25 1494.6 1229.64 1494.05 1228.01 1493.52C1188.74 1480.7 1153.56 1488.6 1136.11 1517.47C1109.6 1561.34 1112.63 1687.3 1226.3 1655.5L1229.22 1654.26L1232.39 1654.83C1234.9 1660.27 1235.17 1663.5 1236.17 1669.23C1157.02 1700.66 1112.96 1645.19 1107.05 1598.46C1101.42 1553.85 1107.59 1476.44 1191.17 1470.15Z"/><path fill="#FEFEFE" d="M2190.25 1473.85C2196.51 1473.73 2201.55 1473.03 2206.66 1475.23C2208.63 1481.59 2207.76 1523.4 2207.75 1532.49L2207.57 1674.58C2201.42 1674.66 2196.28 1675.28 2191.16 1673.2C2189.27 1667.8 2190.04 1625.34 2190.05 1617.12L2190.25 1473.85Z"/><path fill="#FEFEFE" d="M2660.9 1581.51L2852.04 1581.42C2877.5 1581.39 2930.32 1580.32 2954.04 1581.97C2957.91 1586.24 2956.45 1587.34 2956.57 1593.37L2764.01 1593.45C2739.01 1593.46 2686.18 1594.52 2662.9 1592.83C2659.64 1588.78 2660.81 1586.7 2660.9 1581.51Z"/><path fill="#FEFEFE" d="M727.059 1581.51L919.798 1581.44C945.864 1581.43 995.57 1580.4 1020.15 1582.04C1023.16 1585.03 1022.43 1589.45 1022.56 1593.37L826.629 1593.39C804.603 1593.4 749.094 1594.46 729.199 1592.77C726.123 1588.78 727.133 1586.48 727.059 1581.51Z"/></svg>