<?xml version="1.0" encoding="utf-8"?>
<!-- Generator: Adobe Illustrator 19.1.0, SVG Export Plug-In . SVG Version: 6.00 Build 0)  -->
<svg version="1.1" id="Ebene_1" xmlns="http://www.w3.org/2000/svg" xmlns:xlink="http://www.w3.org/1999/xlink" x="0px" y="0px"
	 viewBox="177 310.7 246 256" style="enable-background:new 177 310.7 246 256;" xml:space="preserve">
<style type="text/css">
	.st0{fill:#0387B6;}
	.st1{fill:#046490;}
	.st2{fill:#FFDD00;}
	.st3{fill:#FFCC00;}
	.st4{fill:#FBBA00;}
	.st5{fill:#E88500;}
	.st6{fill:#D85509;}
	.st7{fill:#D45E9F;}
	.st8{fill:#E56DA6;}
	.st9{fill:#B33F8B;}
	.st10{fill:#933281;}
	.st11{fill:#74166A;}
	.st12{fill:#00A9DB;}
</style>
<g>
	<g>
		<path d="M397.6,381.5c3.5,5.5,6.6,11.3,9.1,17.4c2.5,6.1,4.4,12.4,5.8,18.8c1.4,6.4,2.2,13,2.4,19.7c0.2,6.6-0.1,13.3-1,19.9
			c-1.9,13.2-6.3,26.1-12.7,37.9s-15,22.4-25.2,31.3c-5.1,4.4-10.6,8.4-16.4,11.9s-11.9,6.4-18.3,8.8c-12.7,4.8-26.2,7.3-39.8,7.4
			c-13.6,0.1-27.2-2.2-40-6.8c-12.8-4.6-24.8-11.5-35.2-20.3c-10.4-8.8-19.2-19.4-26-31.2c-6.8-11.8-11.5-24.8-13.7-38.2
			c-1.1-6.7-1.6-13.5-1.5-20.3c0.1-6.8,0.8-13.6,2-20.2c1.3-6.7,3.1-13.2,5.5-19.5s5.4-12.4,8.9-18.2c7-11.5,15.9-21.9,26.4-30.2
			s22.4-14.8,35.1-19s26-5.9,39.2-5.5c6.6,0.2,13.1,1,19.6,2.4c6.4,1.4,12.7,3.4,18.7,6l0,0c0.2,0.1,0.2,0.2,0.2,0.4
			c-0.1,0.1-0.2,0.2-0.4,0.2c-12.1-4.5-25.1-6.9-38.1-7c-12.9,0-25.9,2-38.1,6.5c-12.2,4.4-23.6,10.9-33.6,19.2
			c-10,8.3-18.4,18.3-25,29.5c-3.3,5.6-6.1,11.5-8.3,17.5c-2.2,6.1-3.9,12.4-5,18.7c-1.1,6.4-1.7,12.8-1.7,19.3s0.6,12.9,1.7,19.3
			c4.3,25.5,18.1,49.3,38,65.8c9.9,8.3,21.2,14.9,33.4,19.4c12.2,4.4,25.1,6.6,38,6.7c12.9,0,25.9-2.3,38-6.7
			c12.1-4.5,23.5-11.1,33.4-19.4c19.8-16.6,33.5-40.5,37.8-66.1c1.1-6.4,1.6-12.9,1.6-19.3c-0.1-6.5-0.6-13-1.8-19.3
			c-2.3-12.8-6.9-25.1-13.5-36.3c-0.1-0.1,0-0.3,0.1-0.4C397.3,381.3,397.5,381.4,397.6,381.5L397.6,381.5z"/>
	</g>
	<path d="M331.8,477.7c-0.9-0.4-2.7-1.5-3-0.6c-7.9,24.6-17.7,42.9-24,51.3c0.1-16.4,0.3-42.7,0.3-53.9c0-1.8-1.1-2.4-2.4-2.4
		c-1,0-2.1,0.3-3,0.7c0,8.2-3.5,36.1-5.1,50.4c-3.4-15.2-7.7-34.4-10.7-43.4c-0.6-1.7-1.8-2-3.1-1.5c-0.9,0.3-1.9,1-2.6,1.7
		c2.6,7.7,9.1,32.2,12.4,53.2c1.6,10.5-5.3,15.1-16.6,12.7c8.4,3.7,27.4,5.4,34.5,4.9c5.6-0.4,9.3-2.8,9.1-2.7
		c-3,0.4-13.1-2.7-8-13.1c10.2-20.9,18.8-43.9,23.5-54.1C333.8,479.3,333.1,478.3,331.8,477.7z"/>
	<g>
		<polygon class="st0" points="358,403.9 356.2,424.9 345.9,422.3 340.9,410.6 		"/>
		<polygon class="st0" points="217.4,427.2 248.1,443.6 243.8,456.2 256.8,461.7 246.5,471.8 		"/>
		<polygon class="st0" points="246.5,482.3 272.7,490.7 280.2,471.8 274.1,469.1 		"/>
	</g>
	<polygon class="st1" points="272.7,490.7 293.6,477.5 280.2,471.8 	"/>
	<g>
		<polygon class="st2" points="314.7,350 310.7,429 257.5,361.9 		"/>
		<polygon class="st2" points="350.6,367.1 356.8,383.6 368.9,361.2 		"/>
	</g>
	<g>
		<polygon class="st3" points="314.7,350 345.9,422.3 329.9,417.8 		"/>
		<polygon class="st3" points="350.6,367.1 349.1,370.1 356.8,383.6 		"/>
		<polygon class="st3" points="372.8,333.8 378.9,350.3 371.9,345.9 		"/>
	</g>
	<g>
		<polygon class="st4" points="314.7,350 329.9,417.8 326.8,448.6 310.7,429 		"/>
		<polygon class="st4" points="310.7,429 257.6,416 243.8,456.2 		"/>
		<polygon class="st4" points="372.8,333.8 371.9,345.9 351,346.5 		"/>
		<polygon class="st4" points="379,363.4 390.5,353.4 393.1,360.3 		"/>
	</g>
	<g>
		<polygon class="st5" points="257.5,361.9 257.6,416 310.7,429 		"/>
		<polygon class="st5" points="393.1,360.3 389.1,367.6 389.1,361.2 		"/>
		<polygon class="st5" points="393.1,332.3 395.5,338.7 402.4,335.5 		"/>
	</g>
	<polygon class="st6" points="243.8,456.2 310.7,429 326.8,448.6 314.7,451.2 308.9,461.5 	"/>
	<g>
		<polygon class="st7" points="224.3,403.1 234,414.1 257.6,395.5 257.5,389.5 		"/>
		<polygon class="st7" points="329.9,417.8 326.8,448.6 314.7,451.2 314.7,469.1 379.3,430.7 		"/>
	</g>
	<polygon class="st8" points="314.7,469.1 357.4,485.9 360.3,456.2 	"/>
	<polygon class="st9" points="314.7,469.1 310.9,484.2 302.8,478.3 301.7,473.1 314.7,451.2 	"/>
	<g>
		<polygon class="st10" points="224.3,403.1 226.5,420 234,414.1 		"/>
		<polygon class="st10" points="314.7,469.1 379.3,430.7 360.3,456.2 		"/>
		<polygon class="st10" points="314.7,469.1 335.6,493.6 357.4,485.9 		"/>
	</g>
	<g>
		<polygon class="st11" points="243.8,456.2 308.9,461.5 297.8,479.3 		"/>
		<polygon class="st11" points="314.7,469.1 335.6,493.6 310.9,484.2 		"/>
	</g>
	<g>
		<polygon class="st12" points="340.9,410.6 358,403.9 337.9,403.7 		"/>
		<polygon class="st12" points="257.6,395.5 217.4,427.2 248.1,443.6 257.6,416 		"/>
		<polygon class="st12" points="246.5,471.8 246.5,482.3 274.1,469.1 256.8,461.7 		"/>
	</g>
</g>
</svg>
